<svg version="1.1" xmlns="http://www.w3.org/2000/svg" xmlns:xlink="http://www.w3.org/1999/xlink" width="1560" height="804"><defs/><g><path fill="none" stroke="#02063B" paint-order="fill stroke markers" d=" M 20 429.3272557004396 L 21 430.56914126640646 L 22 431.7931720490476 L 23 432.9985830689676 L 24 434.184620983517 L 25 435.3505445576063 L 26 436.4956251269542 L 27 437.6191470534789 L 28 438.7204081725484 L 29 439.79872023181093 L 30 440.85340932133005 L 31 441.8838162947564 L 32 442.8892971812728 L 33 443.869223588055 L 34 444.8229830929967 L 35 445.7499796274535 L 36 446.64963384876654 L 37 447.5213835023324 L 38 448.3646837729943 L 39 449.1790076255337 L 40 449.9638461340501 L 41 450.7187088000233 L 42 451.44312385885894 L 43 452.13663857472596 L 44 452.79881952350183 L 45 453.4292528636484 L 46 454.0275445948497 L 47 454.5933208042489 L 48 455.1262279001319 L 49 455.62593283291073 L 50 456.0921233032684 L 51 456.5245079573362 L 52 456.92281656878 L 53 457.28680020768314 L 54 457.6162313961196 L 55 457.91090425031985 L 56 458.17063460934224 L 57 458.39526015016685 L 58 458.58464048914254 L 59 458.7386572697221 L 60 458.8572142364311 L 61 458.94023729502453 L 62 458.98767455879334 L 63 458.9994963809918 L 64 458.9756953733658 L 65 458.9162864107704 L 66 458.82130662187336 L 67 458.69081536595104 L 68 458.5248941957907 L 69 458.32364680672276 L 70 458.0871989718144 L 71 457.81569846326585 L 72 457.5093149600571 L 73 457.1682399419046 L 74 456.7926865695921 L 75 456.38288955175256 L 76 455.93910499818264 L 77 455.4616102597825 L 78 454.95070375522056 L 79 454.4067047844314 L 80 453.82995332906387 L 81 453.2208098400035 L 82 452.5796550121024 L 83 451.9068895462576 L 84 451.2029338989858 L 85 450.46822801965175 L 86 449.7032310755144 L 87 448.908421164762 L 88 448.0842950177166 L 89 447.2313676863938 L 90 446.3501722226115 L 91 445.44125934485055 L 92 444.5051970940731 L 93 443.5425704787157 L 94 442.5539811090781 L 95 441.5400468213365 L 96 440.5014012914156 L 97 439.4386936389623 L 98 438.3525880216667 L 99 437.24376322018543 L 100 436.11291221392554 L 101 434.9607417479551 L 102 433.78797189131075 L 103 432.59533558697746 L 104 431.38357819382344 L 105 430.1534570207751 L 106 428.9057408535233 L 107 427.64120947405775 L 108 426.3606531733283 L 109 425.064872257339 L 110 423.7546765469829 L 111 422.43088487193023 L 112 421.09432455888657 L 113 419.7458309145407 L 114 418.38624670352505 L 115 417.016421621715 L 116 415.637211765197 L 117 414.24947909523615 L 118 412.8540908995785 L 119 411.4519192504246 L 120 410.0438404594124 L 121 408.63073452995144 L 122 407.2134846072489 L 123 405.7929764263731 L 124 404.37009775869757 L 125 402.94573785707286 L 126 401.52078690007255 L 127 400.09613543566064 L 128 398.6726738246279 L 129 397.2512916841457 L 130 395.83287733178383 L 131 394.418317230341 L 132 393.00849543383487 L 133 391.6042930349964 L 134 390.20658761461624 L 135 388.8162526930848 L 136 387.4341571844706 L 137 386.0611648534775 L 138 384.6981337756195 L 139 383.34591580095173 L 140 382.0053560216917 L 141 380.6772922440643 L 142 379.3625544647003 L 143 378.06196435191515 L 144 376.7763347321934 L 145 375.5064690821983 L 146 374.25316102662515 L 147 373.0171938422117 L 148 371.79933996821586 L 149 370.600360523666 L 150 369.4210048316864 L 151 368.26200995119495 L 152 367.124100216265 L 153 366.00798678344034 L 154 364.91436718728545 L 155 363.84392490444907 L 156 362.7973289265135 L 157 361.77523334189686 L 158 360.7782769270688 L 159 359.8070827473364 L 160 358.8622577674481 L 161 357.94439247226103 L 162 357.05406049770687 L 163 356.1918182722882 L 164 355.35820466932864 L 165 354.5537406701947 L 166 353.7789290386996 L 167 353.0342540068916 L 168 352.3201809724255 L 169 351.6371562077037 L 170 350.98560658097074 L 171 350.3659392895345 L 172 349.7785416052811 L 173 349.2237806326425 L 174 348.70200307916843 L 175 348.2135350388451 L 176 347.75868178829757 L 177 347.33772759600123 L 178 346.9509355446236 L 179 346.59854736660617 L 180 346.2807832930895 L 181 345.9978419162758 L 182 345.7499000653155 L 183 345.53711269579463 L 184 345.3596127928925 L 185 345.21751128827066 L 186 345.11089699074387 L 187 345.0398365307776 L 188 345.00437431884626 L 189 345.0045325176779 L 190 345.04031102840344 L 191 345.11168749061835 L 192 345.2186172963571 L 193 345.3610336179718 L 194 345.53884744989733 L 195 345.7519476642768 L 196 346.00020108041304 L 197 346.28345254800183 L 198 346.6015250440962 L 199 346.9542197837398 L 200 347.3413163442011 L 201 347.7625728027303 L 202 348.2177258877533 L 203 348.7064911434079 L 204 349.22856310731925 L 205 349.78361550150413 L 206 350.37130143628383 L 207 350.9912536270792 L 208 351.64308462395127 L 209 352.326387053745 L 210 353.04073387468424 L 211 353.7856786432589 L 212 354.5607557932376 L 213 355.3654809266315 L 214 356.1993511164271 L 215 357.0618452208995 L 216 357.95242420930873 L 217 358.87053149877664 L 218 359.81559330213304 L 219 360.78701898651383 L 220 361.78420144248764 L 221 362.80651746347917 L 222 363.85332813525304 L 223 364.9239792352147 L 224 366.0178016412777 L 225 367.13411175004376 L 226 368.2722119040325 L 227 369.4313908276942 L 228 370.6109240719347 L 229 371.8100744668716 L 230 373.0280925825423 L 231 374.26421719727256 L 232 375.5176757734158 L 233 376.7876849401639 L 234 378.073450983128 L 235 379.3741703403849 L 236 380.68903010467653 L 237 382.0172085314507 L 238 383.3578755524248 L 239 384.7101932943512 L 240 386.07331660266124 L 241 387.44639356965865 L 242 388.8285660669346 L 243 390.2189702816702 L 244 391.6167372564905 L 245 393.0209934325359 L 246 394.4308611954065 L 247 395.84545942364394 L 248 397.2639040394027 L 249 398.6853085609702 L 250 400.1087846567893 L 251 401.5334427006361 L 252 402.95839232760795 L 253 404.38274299057207 L 254 405.80560451672864 L 255 407.2260876639401 L 256 408.6433046764781 L 257 410.0563698398422 L 258 411.46440003430257 L 259 412.86651528682097 L 260 414.2618393210055 L 261 415.6495001047545 L 262 417.02863039524834 L 263 418.3983682809483 L 264 419.75785772026256 L 265 421.1062490765449 L 266 422.4426996490896 L 267 423.76637419979227 L 268 425.0764454751461 L 269 426.37209472324867 L 270 427.6525122054952 L 271 428.9168977026386 L 272 430.16446101490067 L 273 431.39442245582126 L 274 432.6060133395366 L 275 433.7984764611836 L 276 434.9710665701274 L 277 436.1230508357194 L 278 437.2537093052924 L 279 438.36233535410724 L 280 439.448236126971 L 281 440.51073297124805 L 282 441.54916186099655 L 283 442.56287381196273 L 284 443.5512352871749 L 285 444.5136285928838 L 286 445.44945226460044 L 287 446.3581214429924 L 288 447.2390682394017 L 289 448.0917420907566 L 290 448.9156101036558 L 291 449.71015738740925 L 292 450.4748873758282 L 293 451.20932213756294 L 294 451.9130026747943 L 295 452.5854892100923 L 296 453.22636146126274 L 297 453.83521890400993 L 298 454.41168102225134 L 299 454.9553875459277 L 300 455.4659986761601 L 301 455.94319529761333 L 302 456.38667917793236 L 303 456.796173154128 L 304 457.17142130579475 L 305 457.51218911505265 L 306 457.8182636131134 L 307 458.0894535133789 L 308 458.32558933098903 L 309 458.5265234887444 L 310 458.69213040933704 L 311 458.82230659383237 L 312 458.9169706863525 L 313 458.976063524921 L 314 458.99954817843735 L 315 458.9874099697576 L 316 458.939656484867 L 317 458.8563175681392 L 318 458.73744530368435 L 319 458.58311398279824 L 320 458.39342005753275 L 321 458.16848208041637 L 322 457.90844063036275 L 323 457.6134582248135 L 324 457.28371921816995 L 325 456.9194296865777 L 326 456.520817299136 L 327 456.0881311756116 L 328 455.62164173074706 L 329 455.1216405052606 L 330 454.5884399836424 L 331 454.02237339886204 L 332 453.4237945241087 L 333 452.79307745169467 L 334 452.1306163592593 L 335 451.4368252634214 L 336 450.71213776103195 L 337 449.95700675819046 L 338 449.1719041871931 L 339 448.35732071159043 L 340 447.5137654195389 L 341 446.6417655056373 L 342 445.7418659414468 L 343 444.81462913490213 L 344 443.8606345788245 L 345 442.8804784887575 L 346 441.8747734303521 L 347 440.8441479365326 L 348 439.78924611468443 L 349 438.7107272441076 L 350 437.609265363989 L 351 436.48554885214946 L 352 435.34027999483044 L 353 434.17417454778763 L 354 432.987961288967 L 355 431.7823815630425 L 356 430.55818881809944 L 357 429.3161481347542 L 358 428.0570357480039 L 359 426.7816385621041 L 360 425.49075365878014 L 361 424.18518779907646 L 362 422.86575691915743 L 363 421.5332856203737 L 364 420.1886066539131 L 365 418.83256040035843 L 366 417.46599434447705 L 367 416.08976254557024 L 368 414.7047251037141 L 369 413.31174762222474 L 370 411.91170066668474 L 371 410.5054592208678 L 372 409.0939021399025 L 373 407.6779116010164 L 374 406.25837255220347 L 375 404.8361721591615 L 376 403.4121992508414 L 377 401.9873437639586 L 378 400.5624961868115 L 379 399.1385470027547 L 380 397.71638613367685 L 381 396.29690238382784 L 382 394.88098288434514 L 383 393.46951253882577 L 384 392.0633734702902 L 385 390.6634444698845 L 386 389.2706004476643 L 387 387.88571188580454 L 388 386.5096442945763 L 389 385.143257671431 L 390 383.7874059635304 L 391 382.4429365340571 L 392 381.11068963264006 L 393 379.79149787022635 L 394 378.4861856987257 L 395 377.1955688957557 L 396 375.92045405480667 L 397 374.6616380811476 L 398 373.4199076937858 L 399 372.19603893379303 L 400 370.9907966793059 L 401 369.8049341675011 L 402 368.63919252384693 L 403 367.49430029892426 L 404 366.3709730131057 L 405 365.26991270937907 L 406 364.1918075145931 L 407 363.1373312094007 L 408 362.1071428071681 L 409 361.10188614211233 L 410 360.12218946692667 L 411 359.1686650601426 L 412 358.2419088434758 L 413 357.34250000939454 L 414 356.471000659143 L 415 355.62795545144655 L 416 354.81389126211775 L 417 354.02931685477597 L 418 353.2747225628869 L 419 352.55057998331966 L 420 351.8573416816148 L 421 351.19544090914496 L 422 350.56529133234704 L 423 349.96728677419446 L 424 349.40180096807 L 425 348.86918732419525 L 426 348.36977870876024 L 427 347.9038872358932 L 428 347.4718040725993 L 429 347.07379925679055 L 430 346.7101215285213 L 431 346.38099817453354 L 432 346.08663488621 L 433 345.827215631024 L 434 345.6029025375655 L 435 345.41383579421625 L 436 345.26013356153646 L 437 345.1418918984184 L 438 345.05918470205245 L 439 345.01206366174415 L 440 345.0005582266099 L 441 345.02467558717206 L 442 345.0844006708654 L 443 345.1796961514567 L 444 345.3105024723726 L 445 345.47673788392046 L 446 345.6782984943793 L 447 345.91505833492863 L 448 346.1868694383749 L 449 346.4935619316264 L 450 346.8349441418581 L 451 347.21080271630103 L 452 347.6209027555809 L 453 348.0649879605225 L 454 348.5427807923284 L 455 349.05398264603144 L 456 349.59827403711347 L 457 350.1753148011725 L 458 350.7847443065144 L 459 351.4261816795363 L 460 352.0992260427596 L 461 352.8034567653658 L 462 353.53843372607713 L 463 354.30369758821746 L 464 355.0987700867836 L 465 355.92315432734455 L 466 356.77633509658483 L 467 357.65777918429586 L 468 358.5669357166151 L 469 359.50323650030424 L 470 360.46609637785133 L 471 361.4549135931753 L 472 362.46907016770405 L 473 363.5079322865905 L 474 364.57085069482713 L 475 365.65716110300804 L 476 366.7661846024891 L 477 367.8972280896834 L 478 369.04958469922843 L 479 370.2225342457542 L 480 371.4153436739752 L 481 372.62726751682646 L 482 373.85754836135595 L 483 375.10541732208316 L 484 376.37009452152773 L 485 377.6507895776069 L 486 378.94670209759903 L 487 380.2570221783629 L 488 381.5809309125008 L 489 382.917600900149 L 490 384.2661967660757 L 491 385.6258756817635 L 492 386.99578789214934 L 493 388.37507724669433 L 494 389.7628817344499 L 495 391.158334022786 L 496 392.56056199944635 L 497 393.96868931759013 L 498 395.38183594347987 L 499 396.7991187064745 L 500 398.21965185098156 L 501 399.64254759002614 L 502 401.06691666008857 L 503 402.4918688768651 L 504 403.9165136916048 L 505 405.3399607476724 L 506 406.7613204369932 L 507 408.17970445602845 L 508 409.5942263609367 L 509 411.0040021215722 L 510 412.40815067397466 L 511 413.80579447100575 L 512 415.19606003078775 L 513 416.57807848260063 L 514 417.95098610989896 L 515 419.31392489010557 L 516 420.6660430308485 L 517 422.00649550230304 L 518 423.3344445653081 L 519 424.64906029492613 L 520 425.94952109911856 L 521 427.23501423221455 L 522 428.50473630285063 L 523 429.7578937760637 L 524 430.9937034692253 L 525 432.21139304150444 L 526 433.41020147655587 L 527 434.5893795581307 L 528 435.7481903383117 L 529 436.8859095980824 L 530 438.0018262999396 L 531 439.0952430322694 L 532 440.1654764452063 L 533 441.2118576777048 L 534 442.2337327755559 L 535 443.23046310008675 L 536 444.2014257272896 L 537 445.1460138371285 L 538 446.06363709278264 L 539 446.95372200958707 L 540 447.8157123134424 L 541 448.6490692884676 L 542 449.45327211368027 L 543 450.2278181884925 L 544 450.97222344682024 L 545 451.68602265960845 L 546 452.36876972558423 L 547 453.0200379500557 L 548 453.63942031158234 L 549 454.22652971634994 L 550 454.7809992400918 L 551 455.3024823574042 L 552 455.79065315831394 L 553 456.24520655196113 L 554 456.665858457271 L 555 457.0523459804956 L 556 457.40442757951365 L 557 457.72188321478643 L 558 458.00451448687556 L 559 458.252144760436 L 560 458.4646192746076 L 561 458.6418052397353 L 562 458.7835919203584 L 563 458.88989070441704 L 564 458.9606351586313 L 565 458.99578107002014 L 566 458.995306473533 L 567 458.95921166577716 L 568 458.88751920483264 L 569 458.78027389615374 L 570 458.63754276456746 L 571 458.45941501238497 L 572 458.24600196365293 L 573 457.99743699458014 L 574 457.7138754501809 L 575 457.39549454719025 L 576 457.0424932633088 L 577 456.6550922128483 L 578 456.23353350885486 L 579 455.77808061179604 L 580 455.2890181649069 L 581 454.7666518162972 L 582 454.21130802793095 L 583 453.6233338715987 L 584 453.0030968120087 L 585 452.35098447713375 L 586 451.66740441595584 L 587 450.9527838437617 L 588 450.2075693751473 L 589 449.4322267448974 L 590 448.6272405169176 L 591 447.79311378139687 L 592 446.93036784039305 L 593 446.03954188203556 L 594 445.1211926435508 L 595 444.1758940633192 L 596 443.20423692218264 L 597 442.2068284742255 L 598 441.18429206726086 L 599 440.13726675325785 L 600 439.06640688895567 L 601 437.9723817269115 L 602 436.85587499723965 L 603 435.71758448030226 L 604 434.55822157061937 L 605 433.3785108322707 L 606 432.1791895460665 L 607 430.96100724877095 L 608 429.7247252646666 L 609 428.47111622975046 L 610 427.20096360886276 L 611 425.9150612060463 L 612 424.6142126684449 L 613 423.2992309840502 L 614 421.9709379736103 L 615 420.630163777019 L 616 419.277746334505 L 617 417.91453086294695 L 618 416.5413693276399 L 619 415.15911990984506 L 620 413.7686464704544 L 621 412.37081801010567 L 622 410.96650812608533 L 623 409.5565944663587 L 624 408.14195818106833 L 625 406.7234833718441 L 626 405.3020565392685 L 627 403.87856602884244 L 628 402.45390147579843 L 629 401.0289532491071 L 630 399.6046118950261 L 631 398.18176758053744 L 632 396.76130953702216 L 633 395.3441255045196 L 634 393.9311011769185 L 635 392.5231196484279 L 636 391.1210608616712 L 637 389.72580105775126 L 638 388.33821222862787 L 639 386.95916157215106 L 640 385.58951095009127 L 641 384.2301163495033 L 642 382.881827347762 L 643 381.5454865816052 L 644 380.22192922051147 L 645 378.91198244474833 L 646 377.61646492840987 L 647 376.33618632777257 L 648 375.0719467752874 L 649 373.8245363795216 L 650 372.5947347313678 L 651 371.38331041682414 L 652 370.1910205366536 L 653 369.0186102332208 L 654 367.8668122248015 L 655 366.73634634765864 L 656 365.627919106167 L 657 364.5422232312715 L 658 363.4799372475534 L 659 362.4417250491732 L 660 361.42823548496 L 661 360.4401019529007 L 662 359.4779420042877 L 663 358.54235695776936 L 664 357.633931523545 L 665 356.75323343794065 L 666 355.9008131085917 L 667 355.0772032704565 L 668 354.28291865287446 L 669 353.51845565787613 L 670 352.7842920499494 L 671 352.08088665745095 L 672 351.40867908585426 L 673 350.76808944301035 L 674 350.1595180765939 L 675 349.58334532389904 L 676 349.039931274141 L 677 348.5296155434119 L 678 348.05271706243207 L 679 347.60953387722833 L 680 347.20034296286525 L 681 346.82540005034457 L 682 346.4849394667816 L 683 346.17917398895867 L 684 345.90829471034635 L 685 345.6724709216762 L 686 345.4718500051398 L 687 345.30655734227946 L 688 345.17669623562904 L 689 345.0823478441529 L 690 345.02357113252464 L 691 345.0004028342757 L 692 345.01285742883834 L 693 345.06092713249643 L 694 345.1445819032499 L 695 345.26376945959004 L 696 345.4184153131739 L 697 345.60842281537697 L 698 345.8336732176954 L 699 346.0940257459598 L 700 346.38931768831503 L 701 346.7193644969092 L 702 347.08395990323044 L 703 347.48287604701784 L 704 347.91586361866695 L 705 348.38265201503964 L 706 348.88294950858295 L 707 349.41644342964884 L 708 349.9828003619025 L 709 350.58166635069705 L 710 351.21266712428337 L 711 351.87540832771793 L 712 352.56947576932185 L 713 353.29443567953683 L 714 354.04983498201767 L 715 354.8352015767894 L 716 355.65004463529516 L 717 356.4938549071478 L 718 357.3661050383944 L 719 358.2662499010961 L 720 359.1937269340145 L 721 360.1479564941947 L 722 361.12834221922344 L 723 362.13427139993513 L 724 363.1651153633365 L 725 364.2202298655056 L 726 365.2989554942241 L 727 366.40061808108834 L 728 367.5245291228418 L 729 368.66998621166863 L 730 369.8362734741743 L 731 371.022662018784 L 732 372.2284103912763 L 733 373.45276503816683 L 734 374.69496077765604 L 735 375.9542212778416 L 736 377.2297595419019 L 737 378.5207783999425 L 738 379.82647100720135 L 739 381.1460213483013 L 740 382.4786047472321 L 741 383.823388382747 L 742 385.17953180884865 L 743 386.5461874800397 L 744 387.9225012810126 L 745 389.30761306044235 L 746 390.70065716855424 L 747 392.1007629981265 L 748 393.5070555285907 L 749 394.9186558728924 L 750 396.33468182676563 L 751 397.7542484200831 L 752 399.17646846993307 L 753 400.6004531350792 L 754 402.02531247145885 L 755 403.4501559883676 L 756 404.87409320498824 L 757 406.2962342069117 L 758 407.7156902023042 L 759 409.1315740773741 L 760 410.54300095078827 L 761 411.94908872669487 L 762 413.3489586460043 L 763 414.74173583558434 L 764 416.1265498550287 L 765 417.50253524065255 L 766 418.8688320463803 L 767 420.2245863811834 L 768 421.56895094273403 L 769 422.90108554694245 L 770 424.2201576530436 L 771 425.5253428839089 L 772 426.8158255412549 L 773 428.09079911542744 L 774 429.3494667894452 L 775 430.59104193698295 L 776 431.8147486139887 L 777 433.0198220436228 L 778 434.2055090942183 L 779 435.37106874996465 L 780 436.51577257401726 L 781 437.638905163748 L 782 438.739764597848 L 783 439.8176628750052 L 784 440.87192634388373 L 785 441.901896124133 L 786 442.90692851816743 L 787 443.8863954134562 L 788 444.8396846750725 L 789 445.7662005282588 L 790 446.66536393076626 L 791 447.5366129347373 L 792 448.37940303790504 L 793 449.19320752388865 L 794 449.97751779137513 L 795 450.7318436719776 L 796 451.45571373657503 L 797 452.1486755899402 L 798 452.8102961534714 L 799 453.4401619358533 L 800 454.0378792914748 L 801 454.6030746664452 L 802 455.1353948320531 L 803 455.6345071055227 L 804 456.10009955793 L 805 456.53188120914774 L 806 456.9295822096992 L 807 457.2929540094047 L 808 457.6217695127176 L 809 457.9158232206519 L 810 458.1749313592118 L 811 458.39893199424523 L 812 458.5876851326467 L 813 458.74107280984896 L 814 458.8589991635467 L 815 458.9413904936075 L 816 458.98819530813216 L 817 458.999384355635 L 818 458.97495064332566 L 819 458.9149094414789 L 820 458.81929827389155 L 821 458.688176894431 L 822 458.5216272496912 L 823 458.31975342777883 L 824 458.0826815932611 L 825 457.81055990831777 L 826 457.5035584401438 L 827 457.1618690546636 L 828 456.7857052966206 L 829 456.3753022561189 L 830 455.93091642169964 L 831 455.4528255200439 L 832 454.9413283424027 L 833 454.3967445578622 L 834 453.81941451356056 L 835 453.20969902198283 L 836 452.56797913546404 L 837 451.89465590804423 L 838 451.1901501448232 L 839 450.45490213896994 L 840 449.6893713965552 L 841 448.8940363493736 L 842 448.06939405594034 L 843 447.21595989084574 L 844 446.3342672226623 L 845 445.4248670806075 L 846 444.48832781016773 L 847 443.5252347179013 L 848 442.536189705641 L 849 441.5218108943245 L 850 440.4827322376897 L 851 439.4196031260733 L 852 438.3330879805636 L 853 437.2238658377593 L 854 436.0926299253926 L 855 434.9400872290857 L 856 433.7669580505067 L 857 432.57397555720513 L 858 431.36188532440633 L 859 430.1314448690502 L 860 428.8834231763692 L 861 427.6186002192961 L 862 426.3377664710073 L 863 425.0417224109027 L 864 423.7312780243316 L 865 422.40725229637906 L 866 421.0704727000261 L 867 419.72177467900605 L 868 418.36200112568054 L 869 416.99200185425735 L 870 415.61263306968624 L 871 414.22475683255686 L 872 412.82924052033997 L 873 411.42695628530504 L 874 410.01878050945226 L 875 408.6055932568039 L 876 407.1882777233913 L 877 405.7677196852872 L 878 404.3448069450245 L 879 402.92042877674777 L 880 401.49547537044697 L 881 400.07083727561667 L 882 398.647404844692 L 883 397.22606767660784 L 884 395.80771406082744 L 885 394.3932304221916 L 886 392.9835007669309 L 887 391.5794061301909 L 888 390.18182402541476 L 889 388.7916278959243 L 890 387.409686569048 L 891 386.03686371313086 L 892 384.6740172977703 L 893 383.32199905761377 L 894 381.98165396005083 L 895 380.6538196771378 L 896 379.3393260620783 L 897 378.0389946305931 L 898 376.7536380474996 L 899 375.4840596188216 L 900 374.23105278975095 L 901 372.99540064876845 L 902 371.7778754382398 L 903 370.57923807178986 L 904 369.40023765875486 L 905 368.24161103601523 L 906 367.10408230749516 L 907 365.98836239162154 L 908 364.8951485770239 L 909 363.82512408675046 L 910 362.7789576512771 L 911 361.7573030905716 L 912 360.76079890547805 L 913 359.79006787867473 L 914 358.84571668545453 L 915 357.9283355145735 L 916 357.03849769940126 L 917 356.17675935960665 L 918 355.3436590536016 L 919 354.53971744195843 L 920 353.76543696201526 L 921 353.021301513868 L 922 352.3077761579491 L 923 351.6253068243798 L 924 350.97432003427815 L 925 350.35522263319757 L 926 349.7684015368611 L 927 349.2142234893522 L 928 348.69303483391127 L 929 348.20516129648246 L 930 347.7509077821459 L 931 347.3305581845612 L 932 346.944375208544 L 933 346.5926002058835 L 934 346.2754530245056 L 935 345.99313187107515 L 936 345.745813187123 L 937 345.53365153877604 L 938 345.3567795201584 L 939 345.2153076705242 L 940 345.1093244051744 L 941 345.03889596019997 L 942 345.0040663510864 L 943 345.00485734520566 L 944 345.04126844821224 L 945 345.1132769043519 L 946 345.22083771068355 L 947 345.3638836452045 L 948 345.5423253088621 L 949 345.756051181425 L 950 346.0049276911799 L 951 346.2887992984095 L 952 346.6074885925998 L 953 346.9607964033156 L 954 347.34850192467593 L 955 347.77036285335026 L 956 348.22611553999036 L 957 348.7154751540025 L 958 349.23813586155717 L 959 349.7937710167256 L 960 350.3820333656224 L 961 351.0025552634284 L 962 351.6549489041563 L 963 352.3388065630169 L 964 353.053700851234 L 965 353.7991849831482 L 966 354.5747930554437 L 967 355.38004033832254 L 968 356.21442357844455 L 969 357.07742131344537 L 970 357.9684941978321 L 971 358.88708534005775 L 972 359.8326206505601 L 973 360.8045092005482 L 974 361.80214359131503 L 975 362.82490033384045 L 976 363.87214023845263 L 977 364.94320881430053 L 978 366.0374366783887 L 979 367.1541399739211 L 980 368.2926207976879 L 981 369.45216763623364 L 982 370.63205581052915 L 983 371.8315479288723 L 984 373.04989434773455 L 985 374.2863336402627 L 986 375.5400930721469 L 987 376.81038908455395 L 988 378.0964277838258 L 989 379.3974054376381 L 990 380.71250897730545 L 991 382.04091650592426 L 992 383.3817978120308 L 993 384.734314888456 L 994 386.09762245605384 L 995 387.4708684919717 L 996 388.85319476213846 L 997 390.243737357632 L 998 391.64162723459407 L 999 393.04599075735507 L 1000 394.45595024442696 L 1001 395.8706245170266 L 1002 397.28912944978356 L 1003 398.71057852328875 L 1004 400.13408337814184 L 1005 401.5587543701451 L 1006 402.9837011263039 L 1007 404.4080331012798 L 1008 405.83086013395206 L 1009 407.25129300374067 L 1010 408.66844398633873 L 1011 410.0814274085126 L 1012 411.48936020161807 L 1013 412.89136245348936 L 1014 414.28655795835664 L 1015 415.6740747644444 L 1016 417.05304571891475 L 1017 418.42260900980875 L 1018 419.78190870465045 L 1019 421.13009528537805 L 1020 422.4663261792636 L 1021 423.78976628549475 L 1022 425.09958849708516 L 1023 426.3949742177888 L 1024 427.67511387369717 L 1025 428.9392074191954 L 1026 430.1864648369656 L 1027 431.41610663172196 L 1028 432.6273643173689 L 1029 433.8194808972814 L 1030 434.99171133740174 L 1031 436.1433230318628 L 1032 437.2735962608422 L 1033 438.3818246403636 L 1034 439.46731556376443 L 1035 440.52939063455153 L 1036 441.5673860903778 L 1037 442.58065321787177 L 1038 443.5685587580617 L 1039 444.530485302143 L 1040 445.46583167733735 L 1041 446.3740133226073 L 1042 447.2544626539872 L 1043 448.1066294193046 L 1044 448.92998104207066 L 1045 449.7240029543221 L 1046 450.48819891821046 L 1047 451.22209133613404 L 1048 451.9252215492207 L 1049 452.59715012397527 L 1050 453.2374571269106 L 1051 453.84574238699287 L 1052 454.4216257457351 L 1053 454.96474729478376 L 1054 455.4747676008502 L 1055 455.9513679178449 L 1056 456.39425038608374 L 1057 456.8031382184406 L 1058 457.17777587333006 L 1059 457.5179292144129 L 1060 457.8233856569233 L 1061 458.09395430052774 L 1062 458.3294660486314 L 1063 458.5297737140579 L 1064 458.6947521110368 L 1065 458.82429813344004 L 1066 458.91833081922067 L 1067 458.9767914010109 L 1068 458.99964334285016 L 1069 458.9868723630186 L 1070 458.938486442963 L 1071 458.8545158223082 L 1072 458.73501297995887 L 1073 458.5800526013015 L 1074 458.38973153152847 L 1075 458.16416871511325 L 1076 457.9035051214737 L 1077 457.60790365687086 L 1078 457.2775490625979 L 1079 456.9126477995227 L 1080 456.51342791905665 L 1081 456.0801389206299 L 1082 455.6130515957622 L 1083 455.1124578588274 L 1084 454.5786705646159 L 1085 454.01202331281115 L 1086 453.4128702395004 L 1087 452.781585795851 L 1088 452.1185645140913 L 1089 451.4242207609399 L 1090 450.6989884786408 L 1091 449.94332091376305 L 1092 449.15769033393656 L 1093 448.3425877327006 L 1094 447.49852252264793 L 1095 446.62602221705953 L 1096 445.7256321002252 L 1097 444.7979148866589 L 1098 443.84345036942085 L 1099 442.8628350577648 L 1100 441.85668180434055 L 1101 440.8256194221796 L 1102 439.7702922917081 L 1103 438.6913599580305 L 1104 437.5894967187343 L 1105 436.4653912024772 L 1106 435.3197459386154 L 1107 434.15327691814645 L 1108 432.96671314623813 L 1109 431.7607961866233 L 1110 430.53627969814767 L 1111 429.29392896375674 L 1112 428.03452041221897 L 1113 426.758841132884 L 1114 425.4676883837759 L 1115 424.16186909333436 L 1116 422.8421993561094 L 1117 421.5095039227296 L 1118 420.16461568446005 L 1119 418.8083751526713 L 1120 417.44162993354854 L 1121 416.06523419836407 L 1122 414.68004814964854 L 1123 413.2869374835931 L 1124 411.88677284901587 L 1125 410.4804293032365 L 1126 409.06878576519256 L 1127 407.6527244661441 L 1128 406.2331303983086 L 1129 404.8108907617683 L 1130 403.38689441000054 L 1131 401.96203129437185 L 1132 400.5371919079481 L 1133 399.11326672896564 L 1134 397.6911456643101 L 1135 396.2717174933553 L 1136 394.85586931250356 L 1137 393.44448598077975 L 1138 392.03844956682417 L 1139 390.6386387976267 L 1140 389.2459285093526 L 1141 387.86118910059724 L 1142 386.4852859884156 L 1143 385.1190790674657 L 1144 383.7634221726007 L 1145 382.4191625452518 L 1146 381.0871403039284 L 1147 379.7681879191718 L 1148 378.4631296932892 L 1149 377.1727812451899 L 1150 375.89794900065175 L 1151 374.6394296883297 L 1152 373.3980098418273 L 1153 372.1744653081389 L 1154 370.96956076276973 L 1155 369.78404923183956 L 1156 368.61867162146507 L 1157 367.4741562547178 L 1158 366.3512184164468 L 1159 365.2505599062474 L 1160 364.17286859986086 L 1161 363.11881801927314 L 1162 362.08906691178606 L 1163 361.08425883832234 L 1164 360.1050217712197 L 1165 359.1519677017697 L 1166 358.2256922577425 L 1167 357.3267743311388 L 1168 356.455775716402 L 1169 355.61324075931384 L 1170 354.79969601679704 L 1171 354.0156499278335 L 1172 353.261592495707 L 1173 352.5379949817671 L 1174 351.8453096109057 L 1175 351.18396928893196 L 1176 350.5543873320194 L 1177 349.9569572083973 L 1178 349.39205229244584 L 1179 348.86002563134895 L 1180 348.36120972445167 L 1181 347.8959163154586 L 1182 347.46443619760436 L 1183 347.06703903191743 L 1184 346.70397317869043 L 1185 346.37546554226344 L 1186 346.08172142921575 L 1187 345.82292442005627 L 1188 345.5992362544915 L 1189 345.4107967303435 L 1190 345.25772361618107 L 1191 345.1401125777176 L 1192 345.0580371180239 L 1193 345.0115485315905 L 1194 345.0006758722707 L 1195 345.02542593512254 L 1196 345.08578325216257 L 1197 345.18171010203224 L 1198 345.313146533573 L 1199 345.48001040329353 L 1200 345.68219742670686 L 1201 345.9195812435049 L 1202 346.1920134965294 L 1203 346.4993239244901 L 1204 346.8413204683731 L 1205 347.2177893914708 L 1206 347.62849541296083 L 1207 348.0731818549489 L 1208 348.551570802884 L 1209 349.0633632792458 L 1210 349.6082394303961 L 1211 350.18585872647697 L 1212 350.79586017423077 L 1213 351.4378625426089 L 1214 352.11146460102935 L 1215 352.81624537013215 L 1216 353.5517643848783 L 1217 354.3175619698259 L 1218 355.1131595264118 L 1219 355.9380598320613 L 1220 356.79174735093477 L 1221 357.6736885561217 L 1222 358.5833322630775 L 1223 359.52010997409525 L 1224 360.48343623359915 L 1225 361.47270899403446 L 1226 362.48730999212825 L 1227 363.5266051352835 L 1228 364.58994489786596 L 1229 365.67666472713756 L 1230 366.78608545857895 L 1231 367.9175137403463 L 1232 369.0702424665933 L 1233 370.2435512193886 L 1234 371.43670671895495 L 1235 372.6489632819437 L 1236 373.8795632874636 L 1237 375.12773765056943 L 1238 376.3927063029135 L 1239 377.673678680265 L 1240 378.9698542165853 L 1241 380.28042284435656 L 1242 381.60456550084757 L 1243 382.9414546400003 L 1244 384.2902547496208 L 1245 385.65012287354546 L 1246 387.0202091384627 L 1247 388.39965728505535 L 1248 389.7876052031344 L 1249 391.18318547043106 L 1250 392.585525894706 L 1251 393.99375005884235 L 1252 395.4069778685775 L 1253 396.82432610253244 L 1254 398.244908964198 L 1255 399.6678386355273 L 1256 401.0922258317942 L 1257 402.5171803573671 L 1258 403.94181166205146 L 1259 405.3652293976559 L 1260 406.78654397442955 L 1261 408.20486711702796 L 1262 409.6193124196555 L 1263 411.02899590003994 L 1264 412.4330365518935 L 1265 413.83055689551196 L 1266 415.22068352617197 L 1267 416.6025476599802 L 1268 417.9752856768341 L 1269 419.33803966015824 L 1270 420.6899579330721 L 1271 422.0301955906622 L 1272 423.3579150280193 L 1273 424.67228646371393 L 1274 425.9724884583836 L 1275 427.2577084281049 L 1276 428.52714315223244 L 1277 429.7799992753859 L 1278 431.01549380327 L 1279 432.2328545920223 L 1280 433.4313208307764 L 1281 434.6101435171448 L 1282 435.7685859253211 L 1283 436.9059240665093 L 1284 438.02144714139246 L 1285 439.11445798436097 L 1286 440.184273499217 L 1287 441.2302250860878 L 1288 442.25165905927906 L 1289 443.247937055806 L 1290 444.2184364343514 L 1291 445.16255066439476 L 1292 446.0796897052746 L 1293 446.9692803749447 L 1294 447.83076670819344 L 1295 448.6636103041054 L 1296 449.46729066254346 L 1297 450.2413055094444 L 1298 450.9851711107244 L 1299 451.6984225745962 L 1300 452.38061414211234 L 1301 453.03131946574945 L 1302 453.65013187586163 L 1303 454.23666463483596 L 1304 454.7905511787901 L 1305 455.3114453466642 L 1306 455.7990215965591 L 1307 456.25297520918986 L 1308 456.6730224783256 L 1309 457.05890088809593 L 1310 457.41036927705585 L 1311 457.727207988903 L 1312 458.00921900975595 L 1313 458.2562260919067 L 1314 458.46807486396915 L 1315 458.6446329273568 L 1316 458.7857899390272 L 1317 458.89145768044307 L 1318 458.9615701127055 L 1319 458.99608341782664 L 1320 458.9949760261142 L 1321 458.9582486296521 L 1322 458.8859241818674 L 1323 458.7780478831858 L 1324 458.63468715278253 L 1325 458.4559315864474 L 1326 458.2418929005906 L 1327 457.9927048624236 L 1328 457.70852320635873 L 1329 457.3895255366807 L 1330 457.0359112165491 L 1331 456.64790124340345 L 1332 456.22573811084663 L 1333 455.7696856570943 L 1334 455.28002890008537 L 1335 454.7570738593536 L 1336 454.2011473647767 L 1337 453.61259685231744 L 1338 452.9917901468879 L 1339 452.33911523247116 L 1340 451.65498000964305 L 1341 450.9398120406483 L 1342 450.19405828218777 L 1343 449.418184806085 L 1344 448.6126765080072 L 1345 447.77803680441997 L 1346 446.91478731796946 L 1347 446.0234675514846 L 1348 445.1046345508056 L 1349 444.15886255664896 L 1350 443.1867426457247 L 1351 442.1888823613332 L 1352 441.1659053336704 L 1353 440.1184508900791 L 1354 439.0471736554909 L 1355 437.95274314330555 L 1356 436.83584333696797 L 1357 435.69717226250043 L 1358 434.5374415522588 L 1359 433.35737600018683 L 1360 432.15771310884134 L 1361 430.9392026284788 L 1362 429.70260608848514 L 1363 428.44869632144463 L 1364 427.17825698014576 L 1365 425.89208204782193 L 1366 424.5909753419391 L 1367 423.2757500118355 L 1368 421.94722803052974 L 1369 420.60623968101555 L 1370 419.25362303736 L 1371 417.89022344093576 L 1372 416.51689297211 L 1373 415.13448991772157 L 1374 413.74387823468106 L 1375 412.3459270100236 L 1376 410.9415099177594 L 1377 409.53150467285525 L 1378 408.1167924826912 L 1379 406.6982574963361 L 1380 405.2767862519807 L 1381 403.8532671228818 L 1382 402.4285897621575 L 1383 401.0036445467827 L 1384 399.57932202113375 L 1385 398.15651234042514 L 1386 396.73610471439287 L 1387 395.3189868515669 L 1388 393.9060444044819 L 1389 392.4981604161749 L 1390 391.09621476830955 L 1391 389.7010836312805 L 1392 388.31363891663483 L 1393 386.93474773215564 L 1394 385.5652718399491 L 1395 384.2060671178691 L 1396 382.8579830246229 L 1397 381.5218620688868 L 1398 380.19853928276507 L 1399 378.8888416999238 L 1400 377.5935878387194 L 1401 376.3135871906528 L 1402 375.0496397144632 L 1403 373.80253533617963 L 1404 372.57305345544415 L 1405 371.36196245841063 L 1406 370.17001923752935 L 1407 368.9979687185141 L 1408 367.84654339478686 L 1409 366.7164628696953 L 1410 365.6084334067814 L 1411 364.52314748839166 L 1412 363.4612833828974 L 1413 362.42350472079926 L 1414 361.41046007998034 L 1415 360.4227825803648 L 1416 359.4610894882398 L 1417 358.52598183048326 L 1418 357.61804401894204 L 1419 356.7378434851942 L 1420 355.8859303259213 L 1421 355.062836959117 L 1422 354.26907779134257 L 1423 353.5051488962398 L 1424 352.7715277045015 L 1425 352.06867270549196 L 1426 351.3970231607066 L 1427 350.75699882924783 L 1428 350.1489997054889 L 1429 349.57340576909127 L 1430 349.0305767475287 L 1431 348.5208518912697 L 1432 348.04454976175725 L 1433 347.60196803231787 L 1434 347.19338330212605 L 1435 346.81905092333795 L 1436 346.4792048415054 L 1437 346.17405744936696 L 1438 345.90379945410973 L 1439 345.66859975818363 L 1440 345.4686053537424 L 1441 345.3039412307788 L 1442 345.17471029900946 L 1443 345.0809933235603 L 1444 345.02284887449025 L 1445 345.0003132901873 L 1446 345.0134006546581 L 1447 345.06210278872584 L 1448 345.1463892551421 L 1449 345.2662073776089 L 1450 345.42148227370006 L 1451 345.61211690165993 L 1452 345.8379921210514 L 1453 346.098966767215 L 1454 346.39487773949185 L 1455 346.7255401031566 L 1456 347.09074720499564 L 1457 347.49027080245816 L 1458 347.92386120630096 L 1459 348.39124743663547 L 1460 348.89213739228177 L 1461 349.42621803332236 L 1462 349.9931555767417 L 1463 350.5925957050298 L 1464 351.2241637876189 L 1465 351.8874651150159 L 1466 352.58208514548255 L 1467 353.30758976411073 L 1468 354.0635255541302 L 1469 354.8494200802785 L 1470 355.664782184059 L 1471 356.509102290698 L 1472 357.3818527276127 L 1473 358.28248805418946 L 1474 359.2104454026657 L 1475 360.1651448299051 L 1476 361.1459896798425 L 1477 362.1523669563746 L 1478 363.18364770646275 L 1479 364.2391874132073 L 1480 365.31832639865104 L 1481 366.4203902360556 L 1482 367.5446901713964 L 1483 368.69052355381154 L 1484 369.85717427473503 L 1485 371.04391321544267 L 1486 372.2499987027265 L 1487 373.47467697241683 L 1488 374.71718264046035 L 1489 375.9767391812592 L 1490 377.25255941297604 L 1491 378.5438459894959 L 1492 379.84979189874144 L 1493 381.16958096703024 L 1494 382.5023883691549 L 1495 383.8473811438742 L 1496 385.2037187144853 L 1497 386.5705534141573 L 1498 387.9470310156957 L 1499 389.332291265405 L 1500 390.72546842072165 L 1501 392.12569179127354 L 1502 393.53208628303327 L 1503 394.943772945224 L 1504 396.3598695196335 L 1505 397.779490991999 L 1506 399.2017501451111 L 1507 400.62575811329543 L 1508 402.0506249379259 L 1509 403.47546012361767 L 1510 404.89937319476047 L 1511 406.3214742520352 L 1512 407.74087452857253 L 1513 409.1566869454034 L 1514 410.5680266658532 L 1515 411.9740116485382 L 1516 413.3737631986109 L 1517 414.76640651691645 L 1518 416.1510712467138 L 1519 417.5268920176188 L 1520 418.89300898643495 L 1521 420.2485683745258 L 1522 421.59272300139907 L 1523 422.9246328141675 L 1524 424.24346541255295 L 1525 425.54839656911156 L 1526 426.8386107443479 L 1527 428.1133015964007 L 1528 429.37167248498076 L 1529 430.6129369692438 L 1530 431.8363192992923 L 1531 433.0410549009929 L 1532 434.2263908538103 L 1533 435.39158636135875 L 1534 436.53591321437403 L 1535 437.6586562458229 L 1536 438.75911377785746 L 1537 439.83659806034166 L 1538 440.89043570067287 L 1539 441.9199680846292" stroke-linecap="round" stroke-linejoin="round" stroke-miterlimit="10" stroke-width="18"/></g></svg>