<svg xmlns="http://www.w3.org/2000/svg" version="1.1" xmlns:xlink="http://www.w3.org/1999/xlink" xmlns:svgjs="http://svgjs.dev/svgjs" width="1500" height="1500" viewBox="0 0 1500 1500"><rect width="1500" height="1500" fill="#14293a"></rect><g transform="matrix(0.6666666666666666,0,0,0.6666666666666666,249.39393939393938,668.9599438547481)"><svg viewBox="0 0 396 64" data-background-color="#14293a" preserveAspectRatio="xMidYMid meet" height="242" width="1500" xmlns="http://www.w3.org/2000/svg" xmlns:xlink="http://www.w3.org/1999/xlink"><g id="tight-bounds" transform="matrix(1,0,0,1,0.2400000000000091,0.14812144605039634)"><svg viewBox="0 0 395.52 63.70375710789921" height="63.70375710789921" width="395.52"><g><svg viewBox="0 0 544.47124195912 87.6943359375" height="63.70375710789921" width="395.52"><g><svg viewBox="0 0 544.47124195912 87.6943359375" height="87.6943359375" width="544.47124195912"><g id="textblocktransform"><svg viewBox="0 0 544.47124195912 87.6943359375" height="87.6943359375" width="544.47124195912" id="textblock"><g><svg viewBox="0 0 544.47124195912 87.6943359375" height="87.6943359375" width="544.47124195912"><g><svg><g></g><g></g></svg></g><g><svg><g><svg></svg></g><g></g></svg></g><g id="text-0"><svg viewBox="0 0 544.47124195912 87.6943359375" height="87.6943359375" width="544.47124195912"><g transform="matrix(1,0,0,1,0,15.9052734375)"><svg width="235.30273437499997" viewBox="3.98 -41.19 235.28 41.75" height="41.748046875" data-palette-color="#e9e4de"><path d="M29.22-4.47L29.22 0 3.98 0 3.98-35.16 13.67-35.16 13.67-4.47 29.22-4.47ZM61.86-14.16L61.86-14.16Q61.86-11.96 61.28-10.03 60.69-8.11 59.65-6.47 58.62-4.83 57.15-3.53 55.69-2.22 53.94-1.32 52.19-0.42 50.21 0.07 48.22 0.56 46.12 0.56L46.12 0.56Q44.02 0.56 42.04 0.07 40.06-0.42 38.32-1.32 36.57-2.22 35.1-3.53 33.64-4.83 32.6-6.47 31.56-8.11 30.98-10.05 30.39-11.99 30.39-14.16L30.39-14.16Q30.39-16.33 30.98-18.27 31.56-20.21 32.6-21.85 33.64-23.49 35.1-24.79 36.57-26.1 38.32-27 40.06-27.91 42.04-28.39 44.02-28.88 46.12-28.88L46.12-28.88Q48.22-28.88 50.21-28.39 52.19-27.91 53.94-27 55.69-26.1 57.15-24.79 58.62-23.49 59.65-21.85 60.69-20.21 61.28-18.27 61.86-16.33 61.86-14.16ZM53.46-14.16L53.46-14.16Q53.46-15.33 53.33-16.64 53.2-17.94 52.88-19.2 52.56-20.46 52.01-21.62 51.46-22.78 50.66-23.65 49.85-24.51 48.73-25.04 47.6-25.56 46.12-25.56L46.12-25.56Q44.7-25.56 43.6-25.02 42.5-24.49 41.68-23.6 40.87-22.71 40.32-21.53 39.77-20.36 39.43-19.1 39.08-17.85 38.94-16.56 38.79-15.28 38.79-14.16L38.79-14.16Q38.79-13.04 38.94-11.76 39.08-10.47 39.43-9.2 39.77-7.93 40.32-6.77 40.87-5.62 41.68-4.72 42.5-3.83 43.6-3.3 44.7-2.76 46.12-2.76L46.12-2.76Q47.58-2.76 48.7-3.28 49.83-3.81 50.64-4.69 51.46-5.57 52-6.71 52.54-7.86 52.87-9.13 53.2-10.4 53.33-11.69 53.46-12.99 53.46-14.16ZM84-17.14L79.34 0 71.92 0 64.2-28.2 72.46-28.2 77.29-8.42 81.32-28.2 88.74-28.2 93.67-7.89 98.43-28.2 104.15-28.2 95.6 0 88.18 0 84-17.14ZM131.04-32.62L131.04 0 122.79 0 122.79-41.19 125.97-41.19 131.04-32.62ZM144.71-13.38L144.71-13.38Q146.23-13.04 147.74-12.84 149.26-12.65 150.79-12.65L150.79-12.65Q152.4-12.65 153.78-12.95 155.16-13.26 156.18-13.98 157.19-14.7 157.78-15.89 158.36-17.09 158.36-18.87L158.36-18.87Q158.36-20.31 157.97-21.51 157.58-22.71 156.81-23.56 156.04-24.41 154.92-24.89 153.8-25.37 152.31-25.37L152.31-25.37Q150.92-25.37 149.8-24.85 148.69-24.34 147.85-23.47 147.01-22.61 146.41-21.46 145.81-20.31 145.42-19.07 145.03-17.82 144.86-16.55 144.69-15.28 144.69-14.16L144.69-14.16Q144.69-13.96 144.69-13.77 144.69-13.57 144.71-13.38ZM165.05-18.95L165.05-18.95Q165.05-17.21 164.49-15.86 163.93-14.5 162.96-13.48 162-12.45 160.73-11.74 159.46-11.04 158.02-10.58 156.58-10.13 155.05-9.94 153.53-9.74 152.09-9.74L152.09-9.74Q150.26-9.74 148.47-10 146.69-10.25 144.96-10.82L144.96-10.82Q145.23-9.2 145.81-7.75 146.4-6.3 147.38-5.21 148.35-4.13 149.78-3.49 151.21-2.86 153.16-2.86L153.16-2.86Q154.46-2.86 155.63-3.25 156.8-3.64 157.78-4.35 158.75-5.05 159.5-6.03 160.24-7.01 160.71-8.2L160.71-8.2 164.27-6.88Q163.46-4.96 162.06-3.55 160.66-2.15 158.89-1.23 157.12-0.32 155.13 0.12 153.14 0.56 151.18 0.56L151.18 0.56Q147.96 0.56 145.23-0.52 142.49-1.61 140.51-3.56 138.54-5.52 137.41-8.23 136.29-10.94 136.29-14.16L136.29-14.16Q136.29-17.38 137.41-20.09 138.54-22.8 140.51-24.76 142.49-26.71 145.23-27.8 147.96-28.88 151.18-28.88L151.18-28.88Q152.75-28.88 154.38-28.66 156.02-28.44 157.56-27.97 159.09-27.49 160.46-26.73 161.83-25.98 162.84-24.87 163.85-23.75 164.45-22.29 165.05-20.83 165.05-18.95ZM195.81-28.2L184.7 0 177.28 0 167.03-28.2 175.28-28.2 182.8-5.74 190.1-28.2 195.81-28.2ZM205.52-13.38L205.52-13.38Q207.04-13.04 208.55-12.84 210.07-12.65 211.6-12.65L211.6-12.65Q213.21-12.65 214.59-12.95 215.97-13.26 216.99-13.98 218-14.7 218.59-15.89 219.17-17.09 219.17-18.87L219.17-18.87Q219.17-20.31 218.78-21.51 218.39-22.71 217.62-23.56 216.85-24.41 215.73-24.89 214.61-25.37 213.12-25.37L213.12-25.37Q211.73-25.37 210.61-24.85 209.5-24.34 208.66-23.47 207.82-22.61 207.22-21.46 206.62-20.31 206.23-19.07 205.84-17.82 205.67-16.55 205.5-15.28 205.5-14.16L205.5-14.16Q205.5-13.96 205.5-13.77 205.5-13.57 205.52-13.38ZM225.86-18.95L225.86-18.95Q225.86-17.21 225.3-15.86 224.74-14.5 223.77-13.48 222.81-12.45 221.54-11.74 220.27-11.04 218.83-10.58 217.39-10.13 215.86-9.94 214.34-9.74 212.9-9.74L212.9-9.74Q211.07-9.74 209.28-10 207.5-10.25 205.77-10.82L205.77-10.82Q206.04-9.2 206.62-7.75 207.21-6.3 208.19-5.21 209.16-4.13 210.59-3.49 212.02-2.86 213.97-2.86L213.97-2.86Q215.27-2.86 216.44-3.25 217.61-3.64 218.59-4.35 219.56-5.05 220.31-6.03 221.05-7.01 221.52-8.2L221.52-8.2 225.08-6.88Q224.27-4.96 222.87-3.55 221.47-2.15 219.7-1.23 217.93-0.32 215.94 0.12 213.95 0.56 211.99 0.56L211.99 0.56Q208.77 0.56 206.04-0.52 203.3-1.61 201.33-3.56 199.35-5.52 198.22-8.23 197.1-10.94 197.1-14.16L197.1-14.16Q197.1-17.38 198.22-20.09 199.35-22.8 201.33-24.76 203.3-26.71 206.04-27.8 208.77-28.88 211.99-28.88L211.99-28.88Q213.56-28.88 215.19-28.66 216.83-28.44 218.37-27.97 219.9-27.49 221.27-26.73 222.64-25.98 223.65-24.87 224.67-23.75 225.26-22.29 225.86-20.83 225.86-18.95ZM239.26-32.62L239.26 0 231.01 0 231.01-41.19 234.18-41.19 239.26-32.62Z" opacity="1" transform="matrix(1,0,0,1,0,0)" fill="#e9e4de" class="undefined-tk-0"></path></svg></g><g><svg xmlns="http://www.w3.org/2000/svg" xmlns:xlink="http://www.w3.org/1999/xlink" version="1.1" x="256.0068359375" y="0" viewBox="8 8.9 84.1 82.1" style="enable-background:new 0 0 100 100;" xml:space="preserve" height="87.6943359375" width="89.83061695911998" class="icon-dxe-0" data-fill-palette-color="accent" id="dxe-0"><g fill="#00f13a" data-fill-palette-color="accent"><path d="M81 9C74.9 9 70 13.9 70 20 70 21.2 70.2 22.4 70.6 23.6L54.3 39.9C53 39.3 51.5 39 50 39 43.9 39 39 43.9 39 50S43.9 61 50 61 61 56.1 61 50C61 47.6 60.2 45.5 59 43.7L74.1 28.6C76 30.1 78.4 31 81 31 87.1 31 92 26.1 92 20S87.1 9 81 9M50 55C47.2 55 45 52.8 45 50S47.2 45 50 45 55 47.2 55 50 52.8 55 50 55M81 25C78.2 25 76 22.8 76 20S78.2 15 81 15 86 17.2 86 20 83.8 25 81 25" fill="#00f13a" data-fill-palette-color="accent"></path><path d="M50 31C56.1 31 61 26.1 61 20S56.1 9 50 9 39 13.9 39 20 43.9 31 50 31M50 15C52.8 15 55 17.2 55 20S52.8 25 50 25 45 22.8 45 20 47.2 15 50 15" fill="#00f13a" data-fill-palette-color="accent"></path><path d="M81 39C74.9 39 70 43.9 70 50S74.9 61 81 61 92 56.1 92 50 87.1 39 81 39M81 55C78.2 55 76 52.8 76 50S78.2 45 81 45 86 47.2 86 50 83.8 55 81 55" fill="#00f13a" data-fill-palette-color="accent"></path><path d="M19 91C25.1 91 30 86.1 30 80S25.1 69 19 69 8 73.9 8 80 12.9 91 19 91M19 75C21.8 75 24 77.2 24 80S21.8 85 19 85 14 82.8 14 80 16.2 75 19 75" fill="#00f13a" data-fill-palette-color="accent"></path><path d="M81 69C76 69 71.7 72.4 70.4 77H60.5C59.2 72.4 55 69 49.9 69 46.9 69 44.1 70.2 42.1 72.2L27.1 57.2C29 55.3 30 52.8 30 50 30 45 26.6 40.7 22 39.4V30.5C26.6 29.2 30 25 30 19.9 30 13.8 25.1 8.9 19 8.9S8 13.9 8 20C8 25 11.4 29.3 16 30.6V39.5C11.4 40.7 8 45 8 50 8 56.1 12.9 61 19 61 20.1 61 21.1 60.8 22.1 60.6L39.3 77.8C39.1 78.5 39 79.2 39 80 39 86.1 43.9 91 50 91 55 91 59.3 87.6 60.6 83H70.5C71.8 87.6 76 91 81.1 91 87.2 91 92.1 86.1 92.1 80S87.1 69 81 69M14 20C14 17.2 16.2 15 19 15S24 17.2 24 20 21.8 25 19 25 14 22.8 14 20M14 50C14 47.2 16.2 45 19 45S24 47.2 24 50 21.8 55 19 55 14 52.8 14 50M50 85C47.2 85 45 82.8 45 80S47.2 75 50 75 55 77.2 55 80 52.8 85 50 85M81 85C78.2 85 76 82.8 76 80S78.2 75 81 75 86 77.2 86 80 83.8 85 81 85" fill="#00f13a" data-fill-palette-color="accent"></path></g></svg></g><g transform="matrix(1,0,0,1,366.54155445912,17.589843749999996)"><svg width="177.92968750000003" viewBox="1.88 -39.5 177.92000000000002 52.51" height="52.51464843750001" data-palette-color="#e9e4de"><path d="M31.86-38.57L31.86 0 28.69 0 25.02-6.13Q24.49-4.59 23.55-3.34 22.61-2.1 21.37-1.21 20.14-0.32 18.66 0.17 17.19 0.66 15.55 0.66L15.55 0.66Q12.33 0.66 9.79-0.49 7.25-1.64 5.49-3.63 3.74-5.62 2.81-8.3 1.88-10.99 1.88-14.06L1.88-14.06Q1.88-17.14 2.81-19.82 3.74-22.51 5.49-24.49 7.25-26.46 9.79-27.61 12.33-28.76 15.55-28.76L15.55-28.76Q18.02-28.76 20.08-27.81 22.14-26.86 23.61-24.83L23.61-24.83 23.61-38.57 31.86-38.57ZM23.56-14.06L23.56-14.06Q23.56-15.04 23.41-16.21 23.27-17.38 22.95-18.58 22.63-19.78 22.12-20.9 21.61-22.02 20.86-22.9 20.12-23.78 19.13-24.3 18.14-24.83 16.87-24.83L16.87-24.83Q15.48-24.83 14.45-24.33 13.43-23.83 12.7-22.99 11.96-22.14 11.49-21.04 11.01-19.95 10.74-18.75 10.47-17.55 10.36-16.35 10.25-15.14 10.25-14.06L10.25-14.06Q10.25-12.99 10.36-11.78 10.47-10.57 10.74-9.38 11.01-8.18 11.49-7.07 11.96-5.96 12.7-5.11 13.43-4.27 14.45-3.77 15.48-3.27 16.87-3.27L16.87-3.27Q18.26-3.27 19.31-3.76 20.36-4.25 21.11-5.09 21.85-5.93 22.33-7.02 22.8-8.11 23.07-9.31 23.34-10.52 23.45-11.74 23.56-12.96 23.56-14.06ZM45.53-13.38L45.53-13.38Q47.04-13.04 48.56-12.84 50.07-12.65 51.61-12.65L51.61-12.65Q53.22-12.65 54.6-12.95 55.98-13.26 56.99-13.98 58.01-14.7 58.59-15.89 59.18-17.09 59.18-18.87L59.18-18.87Q59.18-20.31 58.79-21.51 58.4-22.71 57.63-23.56 56.86-24.41 55.73-24.89 54.61-25.37 53.12-25.37L53.12-25.37Q51.73-25.37 50.62-24.85 49.51-24.34 48.67-23.47 47.82-22.61 47.23-21.46 46.63-20.31 46.24-19.07 45.85-17.82 45.68-16.55 45.51-15.28 45.51-14.16L45.51-14.16Q45.51-13.96 45.51-13.77 45.51-13.57 45.53-13.38ZM65.87-18.95L65.87-18.95Q65.87-17.21 65.31-15.86 64.74-14.5 63.78-13.48 62.81-12.45 61.55-11.74 60.28-11.04 58.84-10.58 57.39-10.13 55.87-9.94 54.34-9.74 52.9-9.74L52.9-9.74Q51.07-9.74 49.29-10 47.51-10.25 45.77-10.82L45.77-10.82Q46.04-9.2 46.63-7.75 47.21-6.3 48.19-5.21 49.17-4.13 50.6-3.49 52.02-2.86 53.98-2.86L53.98-2.86Q55.27-2.86 56.44-3.25 57.61-3.64 58.59-4.35 59.57-5.05 60.31-6.03 61.06-7.01 61.52-8.2L61.52-8.2 65.09-6.88Q64.28-4.96 62.88-3.55 61.47-2.15 59.7-1.23 57.93-0.32 55.94 0.12 53.95 0.56 52 0.56L52 0.56Q48.78 0.56 46.04-0.52 43.31-1.61 41.33-3.56 39.35-5.52 38.23-8.23 37.11-10.94 37.11-14.16L37.11-14.16Q37.11-17.38 38.23-20.09 39.35-22.8 41.33-24.76 43.31-26.71 46.04-27.8 48.78-28.88 52-28.88L52-28.88Q53.56-28.88 55.2-28.66 56.83-28.44 58.37-27.97 59.91-27.49 61.28-26.73 62.64-25.98 63.66-24.87 64.67-23.75 65.27-22.29 65.87-20.83 65.87-18.95ZM95.28-9.01L95.28-9.01Q95.28-7.15 94.75-5.71 94.21-4.27 93.28-3.21 92.35-2.15 91.08-1.43 89.81-0.71 88.36-0.27 86.91 0.17 85.32 0.37 83.74 0.56 82.17 0.56L82.17 0.56Q80.07 0.56 78.46 0.29 76.85 0.02 75.39-0.57 73.92-1.17 72.47-2.12 71.02-3.08 69.23-4.44L69.23-4.44 74.04-8.37Q74.7-7.13 75.79-6.12 76.87-5.1 78.05-4.37 79.22-3.64 80.32-3.25 81.42-2.86 82.1-2.86L82.1-2.86Q82.66-2.86 83.37-2.89 84.08-2.93 84.81-3.04 85.54-3.15 86.25-3.37 86.96-3.59 87.51-3.97 88.06-4.35 88.39-4.92 88.72-5.49 88.72-6.3L88.72-6.3Q88.72-7.13 88.29-7.75 87.86-8.37 87.18-8.84 86.49-9.3 85.62-9.62 84.74-9.94 83.85-10.18 82.95-10.42 82.12-10.61 81.29-10.79 80.68-10.96L80.68-10.96Q79.56-11.28 78.32-11.61 77.07-11.94 75.85-12.37 74.63-12.79 73.52-13.38 72.41-13.96 71.56-14.78 70.72-15.6 70.22-16.71 69.72-17.82 69.72-19.31L69.72-19.31Q69.72-22.05 70.81-23.89 71.89-25.73 73.68-26.84 75.46-27.95 77.73-28.42 80-28.88 82.34-28.88L82.34-28.88Q83.95-28.88 85.74-28.55 87.52-28.22 89.2-27.58 90.89-26.93 92.35-26 93.82-25.07 94.79-23.88L94.79-23.88 89.99-19.92Q89.45-21.39 88.58-22.44 87.71-23.49 86.7-24.16 85.69-24.83 84.63-25.15 83.56-25.46 82.66-25.46L82.66-25.46Q81.78-25.46 80.68-25.39 79.58-25.32 78.62-24.98 77.66-24.63 76.98-23.94 76.31-23.24 76.31-22.02L76.31-22.02Q76.31-21.14 76.72-20.52 77.12-19.9 77.78-19.45 78.44-18.99 79.28-18.69 80.12-18.38 81-18.15 81.88-17.92 82.71-17.75 83.54-17.58 84.2-17.38L84.2-17.38Q85.32-17.07 86.58-16.74 87.84-16.41 89.06-15.98 90.28-15.55 91.41-14.98 92.55-14.4 93.4-13.57 94.26-12.74 94.77-11.63 95.28-10.52 95.28-9.01ZM109.15-35.01L109.15-35.01Q109.15-34.08 108.79-33.25 108.44-32.42 107.83-31.81 107.22-31.2 106.39-30.85 105.56-30.49 104.63-30.49L104.63-30.49Q103.7-30.49 102.89-30.85 102.07-31.2 101.46-31.81 100.85-32.42 100.49-33.25 100.14-34.08 100.14-35.01L100.14-35.01Q100.14-35.94 100.49-36.76 100.85-37.57 101.46-38.18 102.07-38.79 102.89-39.15 103.7-39.5 104.63-39.5L104.63-39.5Q105.56-39.5 106.39-39.15 107.22-38.79 107.83-38.18 108.44-37.57 108.79-36.76 109.15-35.94 109.15-35.01ZM108.78-28.17L108.78 0 100.51 0 100.51-28.17 108.78-28.17ZM144.08-28.2L144.08-3.39Q144.08-0.02 143.08 2.95 142.08 5.93 140.18 8.17 138.27 10.4 135.5 11.71 132.73 13.01 129.19 13.01L129.19 13.01Q127.24 13.01 125.25 12.57 123.26 12.13 121.49 11.22 119.72 10.3 118.31 8.9 116.91 7.5 116.1 5.59L116.1 5.59 119.67 4.25Q120.13 5.44 120.88 6.45 121.62 7.45 122.6 8.17 123.57 8.89 124.75 9.29 125.92 9.69 127.21 9.69L127.21 9.69Q129.65 9.69 131.3 8.69 132.95 7.69 133.95 6.08 134.95 4.47 135.39 2.43 135.83 0.39 135.83-1.71L135.83-1.71 135.83-3.37Q134.37-1.37 132.3-0.4 130.24 0.56 127.77 0.56L127.77 0.56Q124.55 0.56 122.01-0.59 119.47-1.73 117.71-3.72 115.96-5.71 115.03-8.4 114.1-11.08 114.1-14.16L114.1-14.16Q114.1-17.24 115.03-19.92 115.96-22.61 117.71-24.6 119.47-26.59 122.01-27.73 124.55-28.88 127.77-28.88L127.77-28.88Q129.41-28.88 130.89-28.39 132.36-27.91 133.6-27.01 134.83-26.12 135.77-24.87 136.71-23.61 137.25-22.07L137.25-22.07 140.91-28.2 144.08-28.2ZM135.78-14.16L135.78-14.16Q135.78-15.26 135.67-16.48 135.56-17.7 135.29-18.9 135.02-20.09 134.55-21.18 134.07-22.27 133.33-23.11 132.58-23.95 131.53-24.44 130.48-24.93 129.09-24.93L129.09-24.93Q127.7-24.93 126.67-24.43 125.65-23.93 124.92-23.08 124.18-22.24 123.71-21.14 123.23-20.04 122.96-18.85 122.7-17.65 122.59-16.44 122.48-15.23 122.48-14.16L122.48-14.16Q122.48-13.09 122.59-11.87 122.7-10.64 122.96-9.45 123.23-8.25 123.71-7.15 124.18-6.05 124.92-5.21 125.65-4.37 126.67-3.87 127.7-3.37 129.09-3.37L129.09-3.37Q130.36-3.37 131.35-3.89 132.34-4.42 133.08-5.3 133.83-6.18 134.34-7.3 134.85-8.42 135.17-9.62 135.49-10.82 135.63-12 135.78-13.18 135.78-14.16ZM179.8-16.16L179.8-16.16Q179.8-13.31 179.1-10.21 178.41-7.1 177.16-4.13 175.92-1.15 174.18 1.48 172.45 4.1 170.37 6.01L170.37 6.01 167.27 4.32Q167.93 3.1 168.52 1.59 169.1 0.07 169.58-1.62 170.06-3.32 170.43-5.13 170.81-6.93 171.07-8.7 171.33-10.47 171.46-12.15 171.59-13.82 171.59-15.26L171.59-15.26Q171.59-16.21 171.52-17.3 171.45-18.38 171.22-19.47 170.98-20.56 170.59-21.56 170.2-22.56 169.56-23.32 168.91-24.07 167.99-24.54 167.08-25 165.83-25L165.83-25Q164.61-25 163.66-24.45 162.71-23.9 161.97-23.01 161.24-22.12 160.72-20.97 160.19-19.82 159.86-18.62 159.53-17.41 159.39-16.24 159.24-15.06 159.24-14.14L159.24-14.14 159.24 0 150.96 0 150.96-28.2 154.14-28.2 157.92-21.63Q158.61-23.27 159.63-24.61 160.66-25.95 161.95-26.9 163.24-27.86 164.82-28.37 166.39-28.88 168.22-28.88L168.22-28.88Q171.15-28.88 173.33-27.93 175.5-26.98 176.94-25.28 178.38-23.58 179.09-21.25 179.8-18.92 179.8-16.16Z" opacity="1" transform="matrix(1,0,0,1,0,0)" fill="#e9e4de" class="undefined-tk-1"></path></svg></g></svg></g></svg></g></svg></g></svg></g><g></g></svg></g><defs></defs></svg><rect width="395.52" height="63.70375710789921" fill="none" stroke="none" visibility="hidden"></rect></g></svg></g></svg>